<mxfile host="65bd71144e">
    <diagram id="gVJmfDabaR7CK4iEQljm" name="Page-1">
        <mxGraphModel dx="1088" dy="1103" grid="1" gridSize="10" guides="1" tooltips="1" connect="1" arrows="1" fold="1" page="1" pageScale="1" pageWidth="850" pageHeight="1100" math="0" shadow="0">
            <root>
                <mxCell id="0"/>
                <mxCell id="1" parent="0"/>
                <mxCell id="2" value="&lt;span style=&quot;caret-color: rgb(219, 222, 225); color: rgb(219, 222, 225); font-family: &amp;quot;gg sans&amp;quot;, &amp;quot;Noto Sans&amp;quot;, &amp;quot;Helvetica Neue&amp;quot;, Helvetica, Arial, sans-serif; font-size: 16px; text-align: left; background-color: rgba(2, 2, 2, 0.06);&quot;&gt;Domain Model Table&lt;/span&gt;" style="text;html=1;align=center;verticalAlign=middle;resizable=0;points=[];autosize=1;strokeColor=none;fillColor=none;" vertex="1" parent="1">
                    <mxGeometry x="120" y="40" width="170" height="30" as="geometry"/>
                </mxCell>
            </root>
        </mxGraphModel>
    </diagram>
</mxfile>